<?xml version="1.0" encoding="UTF-8"?>
<svg width="50px" height="47px" viewBox="0 0 50 47" version="1.1" xmlns="http://www.w3.org/2000/svg" xmlns:xlink="http://www.w3.org/1999/xlink">
    <!-- Generator: Sketch 43.1 (39012) - http://www.bohemiancoding.com/sketch -->
    <title>favicon</title>
    <desc>Created with Sketch.</desc>
    <defs></defs>
    <g id="Symbols" stroke="none" stroke-width="1" fill="none" fill-rule="evenodd">
        <g id="favicon">
            <g id="logo" transform="translate(-4.000000, -3.000000)">
                <path d="M56.43,46.6893617 C56.43,49.3446809 54.036,51.5574468 51.072,51.5574468 L5.358,51.5574468 C2.394,51.5574468 0,49.3446809 0,46.6893617 L0,4.86808511 C0,2.21276596 2.394,0 5.358,0 L51.072,0 C54.036,0 56.43,2.21276596 56.43,4.86808511 L56.43,46.6893617 L56.43,46.6893617 Z" id="Shape" fill="#C1272D"></path>
                <path d="M38.19,8.62978723 C37.848,9.73617021 38.076,10.2893617 38.19,11.2851064 C35.454,11.7276596 32.718,12.2808511 31.122,13.9404255 C31.122,14.6042553 30.552,15.2680851 30.552,16.0425532 C30.552,16.3744681 31.122,17.1489362 31.122,17.812766 C31.122,18.2553191 30.894,18.4765957 30.894,18.8085106 C31.008,19.3617021 31.464,19.693617 31.464,20.1361702 C31.578,21.2425532 31.35,22.4595745 31.692,23.5659574 C31.806,24.1191489 32.262,24.5617021 32.262,25.1148936 C32.376,26.4425532 31.692,27.6595745 31.92,28.987234 C32.034,29.6510638 32.604,30.093617 32.262,30.8680851 C31.008,34.2978723 31.578,39.387234 29.07,41.0468085 C25.878,37.8382979 27.132,30.5361702 26.106,26.5531915 C26.904,25.2255319 27.018,23.2340426 26.904,21.0212766 C27.816,19.693617 27.36,17.4808511 27.474,15.0468085 C27.018,14.3829787 26.562,13.8297872 26.106,13.1659574 C24.852,13.1659574 24.282,12.5021277 23.142,12.3914894 C23.37,13.1659574 24.396,13.387234 25.536,13.387234 C26.448,14.9361702 26.904,16.5957447 26.676,18.6978723 C25.65,20.9106383 25.878,24.1191489 25.65,26.8851064 C25.536,30.3148936 25.764,33.8553191 25.992,37.3957447 C27.132,39.2765957 27.246,42.1531915 29.754,42.706383 C29.868,41.1574468 31.92,39.4978723 31.35,37.3957447 C32.49,36.6212766 31.92,35.293617 32.148,33.7446809 C32.262,33.1914894 32.718,32.7489362 32.718,32.1957447 C32.832,31.3106383 32.49,29.8723404 32.49,28.5446809 C32.604,24.893617 32.262,21.7957447 32.148,19.0297872 C30.894,17.9234043 31.35,15.3787234 32.148,13.8297872 C33.744,13.387234 35.682,11.506383 37.848,12.8340426 C37.734,20.1361702 37.962,26.9957447 37.848,34.0765957 C37.734,34.7404255 38.646,34.6297872 38.418,35.4042553 C38.076,37.3957447 38.76,39.2765957 38.988,40.3829787 C39.216,41.3787234 38.874,42.9276596 40.128,43.0382979 C40.812,41.6 39.558,39.6085106 39.33,38.612766 C38.874,36.1787234 39.216,33.6340426 39.102,31.2 C39.216,30.5361702 38.418,30.7574468 38.532,30.093617 C38.874,29.5404255 38.646,28.4340426 39.102,27.9914894 C38.076,27.3276596 38.76,26.2212766 38.76,25.3361702 C38.76,23.2340426 38.19,20.3574468 38.532,18.4765957 C38.646,17.812766 39.102,17.3702128 39.102,16.706383 C39.102,16.1531915 38.874,16.0425532 38.76,15.6 C38.532,14.8255319 38.76,14.6042553 38.988,14.2723404 C39.33,13.6085106 38.76,12.8340426 39.33,12.5021277 C40.47,12.7234043 41.724,12.8340426 43.092,12.8340426 C44.004,13.0553191 44.118,14.2723404 44.46,14.7148936 C45.03,15.3787234 45.828,15.4893617 46.056,16.4851064 C46.284,17.4808511 45.486,18.3659574 46.056,19.5829787 C46.056,20.0255319 45.6,20.0255319 45.03,19.9148936 C45.714,21.4638298 45.6,24.3404255 44.802,25.6680851 C45.144,26.8851064 45.486,27.6595745 45.03,28.8765957 C46.056,30.3148936 45.03,32.6382979 44.802,34.187234 C46.17,36.2893617 44.574,41.1574468 47.196,42.0425532 C48.108,40.1617021 46.512,39.4978723 46.17,37.8382979 C45.828,35.8468085 46.398,32.9702128 46.398,29.9829787 C46.398,28.212766 46.056,26.2212766 46.17,24.6723404 C46.398,21.7957447 47.082,19.1404255 46.74,16.8170213 C46.398,14.7148936 45.714,14.1617021 44.346,13.1659574 C43.092,12.2808511 43.206,12.3914894 41.382,12.0595745 C40.812,11.9489362 40.242,11.2851064 40.014,11.2851064 C39.444,11.2851064 38.874,11.9489362 38.418,11.506383 C38.76,10.7319149 39.216,9.95744681 38.988,8.62978723 C38.988,8.29787234 38.874,8.74042553 38.19,8.62978723 Z M19.152,11.506383 C17.898,11.7276596 16.074,11.2851064 15.618,12.2808511 C16.302,12.612766 18.24,11.9489362 19.152,12.5021277 C19.038,21.3531915 19.38,29.4297872 18.126,36.9531915 C18.24,37.6170213 18.696,37.8382979 18.468,38.7234043 C18.126,39.4978723 17.214,42.0425532 18.24,42.9276596 C18.924,43.0382979 18.81,41.9319149 18.81,41.9319149 C18.81,41.7106383 19.152,41.7106383 19.152,41.6 C19.266,41.1574468 19.152,40.1617021 19.152,39.4978723 C19.266,36.6212766 19.152,32.9702128 19.494,30.8680851 C20.52,24.7829787 19.038,17.2595745 19.836,12.3914894 C20.406,11.9489362 21.318,13.1659574 21.774,12.1702128 C21.204,11.6170213 19.95,11.9489362 19.608,11.1744681 C19.494,10.4 19.836,9.18297872 19.38,8.74042553 L18.81,8.74042553 C18.354,9.18297872 19.266,10.5106383 19.152,11.506383 Z M13.452,12.7234043 C12.084,13.7191489 10.944,14.8255319 10.716,16.706383 C10.488,18.8085106 11.286,21.6851064 11.514,23.012766 C12.426,28.3234043 10.716,33.8553191 10.374,38.8340426 C10.032,39.9404255 8.094,41.1574468 9.006,42.2638298 C10.83,42.2638298 10.146,39.9404255 11.172,39.1659574 C10.944,37.3957447 11.97,36.9531915 11.742,35.1829787 C12.654,33.6340426 12.768,27.3276596 12.084,25.7787234 C12.996,24.5617021 11.97,22.5702128 12.312,20.5787234 C11.286,19.1404255 11.628,16.0425532 12.084,15.0468085 C12.654,14.0510638 13.566,13.4978723 14.022,12.7234043 C13.794,12.8340426 13.68,12.612766 13.452,12.7234043 Z" id="Shape" fill="#FFFFFF"></path>
                <path d="M40.47,43.2595745 L40.47,43.2595745 C39.33,43.1489362 39.216,42.1531915 39.216,41.3787234 C39.216,41.0468085 39.216,40.8255319 39.102,40.493617 C39.102,40.2723404 38.988,40.0510638 38.988,39.8297872 C38.646,38.7234043 38.304,37.1744681 38.532,35.4042553 C38.646,35.0723404 38.532,34.9617021 38.304,34.7404255 C38.076,34.6297872 37.848,34.4085106 37.962,34.0765957 C38.076,30.4255319 37.962,26.6638298 37.962,23.1234043 C37.962,19.8042553 37.848,16.4851064 37.962,12.9446809 C37.506,12.7234043 37.05,12.5021277 36.48,12.5021277 C35.568,12.5021277 34.542,12.9446809 33.744,13.387234 C33.288,13.6085106 32.832,13.8297872 32.49,13.9404255 C31.806,15.3787234 31.35,17.812766 32.49,18.9191489 L32.49,18.9191489 L32.49,19.4723404 C32.718,22.1276596 32.946,25.1148936 32.832,28.5446809 C32.832,29.2085106 32.832,29.7617021 32.946,30.4255319 C33.06,31.0893617 33.06,31.7531915 33.06,32.1957447 C33.06,32.5276596 32.946,32.7489362 32.718,32.9702128 C32.604,33.1914894 32.49,33.412766 32.376,33.7446809 C32.262,34.187234 32.262,34.6297872 32.262,35.0723404 C32.262,35.9574468 32.262,36.8425532 31.578,37.3957447 C31.92,38.7234043 31.236,39.8297872 30.666,40.8255319 C30.324,41.4893617 29.982,42.0425532 29.982,42.706383 L29.982,42.9276596 L29.868,42.9276596 C28.044,42.4851064 27.474,40.9361702 26.904,39.4978723 C26.676,38.8340426 26.334,38.1702128 25.992,37.6170213 L25.992,37.506383 C25.65,33.9659574 25.422,30.4255319 25.65,26.9957447 C25.65,26.4425532 25.65,25.7787234 25.764,25.2255319 C25.878,22.9021277 25.878,20.5787234 26.676,18.8085106 C26.904,16.8170213 26.448,15.1574468 25.536,13.6085106 L25.308,13.6085106 C24.51,13.6085106 23.37,13.4978723 23.142,12.5021277 L23.028,12.1702128 L23.256,12.1702128 C23.826,12.1702128 24.282,12.3914894 24.738,12.612766 C25.194,12.8340426 25.65,12.9446809 26.22,12.9446809 L26.334,12.9446809 L26.334,13.0553191 C26.676,13.4978723 26.904,13.9404255 27.246,14.3829787 C27.36,14.6042553 27.588,14.8255319 27.702,14.9361702 L27.702,14.9361702 L27.702,14.9361702 L27.702,17.0382979 C27.702,18.587234 27.816,19.9148936 27.132,20.8 C27.246,23.4553191 27.018,25.1148936 26.334,26.3319149 C26.676,27.6595745 26.79,29.4297872 26.79,31.2 C26.904,34.6297872 27.132,38.5021277 29.07,40.6042553 C30.438,39.6085106 30.78,37.3957447 31.122,34.9617021 C31.35,33.5234043 31.578,31.9744681 32.034,30.6468085 C32.148,30.2042553 32.034,29.8723404 31.92,29.5404255 C31.806,29.3191489 31.692,29.0978723 31.692,28.7659574 C31.578,28.1021277 31.806,27.4382979 31.92,26.7744681 C32.034,26.2212766 32.148,25.5574468 32.148,24.893617 C32.148,24.6723404 32.034,24.3404255 31.92,24.1191489 C31.806,23.8978723 31.692,23.6765957 31.578,23.4553191 C31.464,22.7914894 31.464,22.1276596 31.464,21.4638298 C31.464,20.9106383 31.464,20.4680851 31.35,20.0255319 C31.35,19.8042553 31.236,19.5829787 31.122,19.3617021 C31.008,19.1404255 30.894,18.9191489 30.78,18.6978723 C30.78,18.4765957 30.78,18.2553191 30.894,18.1446809 C31.008,18.0340426 31.008,17.9234043 31.008,17.7021277 C31.008,17.3702128 30.78,17.0382979 30.666,16.706383 C30.552,16.3744681 30.438,16.1531915 30.438,16.0425532 C30.438,15.6 30.552,15.2680851 30.78,14.9361702 C30.894,14.6042553 31.008,14.2723404 31.008,13.9404255 L31.008,13.8297872 L31.008,13.8297872 C32.604,12.2808511 35.112,11.6170213 38.076,11.1744681 C38.076,11.0638298 38.076,10.9531915 37.962,10.7319149 C37.848,9.95744681 37.734,9.40425532 38.076,8.51914894 L38.076,8.40851064 L38.19,8.40851064 C38.418,8.40851064 38.532,8.40851064 38.76,8.29787234 C38.988,8.18723404 39.216,8.18723404 39.444,8.40851064 L39.444,8.40851064 L39.444,8.40851064 C39.672,9.62553191 39.33,10.2893617 38.988,11.0638298 C38.988,11.1744681 38.874,11.1744681 38.874,11.2851064 C39.102,11.3957447 39.216,11.2851064 39.558,11.1744681 C39.786,11.0638298 40.014,10.9531915 40.356,10.9531915 C40.47,10.9531915 40.698,11.0638298 40.926,11.2851064 C41.154,11.506383 41.496,11.7276596 41.724,11.7276596 C41.952,11.7276596 42.18,11.8382979 42.408,11.8382979 C43.548,12.0595745 43.662,12.0595745 44.802,12.8340426 C46.17,13.8297872 46.968,14.3829787 47.196,16.5957447 C47.424,18.1446809 47.196,19.8042553 46.968,21.5744681 C46.854,22.4595745 46.74,23.4553191 46.626,24.4510638 C46.512,25.3361702 46.626,26.3319149 46.74,27.4382979 C46.74,28.212766 46.854,28.987234 46.854,29.7617021 C46.854,30.9787234 46.74,32.0851064 46.626,33.1914894 C46.512,34.8510638 46.398,36.4 46.626,37.506383 C46.74,38.0595745 46.968,38.612766 47.31,39.0553191 C47.766,39.8297872 48.222,40.6042553 47.652,41.8212766 L47.652,41.9319149 L47.538,41.9319149 C45.942,41.3787234 45.828,39.387234 45.714,37.506383 C45.6,36.5106383 45.486,35.1829787 45.03,34.2978723 L45.03,34.2978723 L45.03,34.2978723 C45.03,33.8553191 45.144,33.412766 45.258,32.8595745 C45.6,31.5319149 45.942,30.093617 45.258,28.987234 L45.258,28.987234 L45.258,28.8765957 C45.6,27.6595745 45.486,26.9957447 45.144,25.8893617 L45.03,25.6680851 L45.03,25.6680851 C45.714,24.4510638 45.942,21.5744681 45.258,20.0255319 L45.144,19.8042553 L45.372,19.8042553 L45.714,19.8042553 C46.17,19.8042553 46.17,19.693617 46.284,19.5829787 C45.942,18.9191489 46.056,18.2553191 46.17,17.7021277 C46.284,17.2595745 46.284,16.9276596 46.284,16.4851064 C46.17,15.9319149 45.828,15.7106383 45.486,15.4893617 C45.258,15.2680851 45.03,15.1574468 44.802,14.8255319 C44.688,14.6042553 44.574,14.3829787 44.46,14.1617021 C44.232,13.7191489 44.118,13.1659574 43.548,12.9446809 C42.408,12.9446809 41.154,12.8340426 39.9,12.612766 C39.672,12.7234043 39.672,12.9446809 39.786,13.2765957 C39.786,13.6085106 39.786,13.9404255 39.672,14.2723404 C39.672,14.2723404 39.672,14.3829787 39.558,14.3829787 C39.444,14.7148936 39.33,14.8255319 39.444,15.4893617 C39.444,15.6 39.558,15.7106383 39.672,15.8212766 C39.786,16.0425532 39.9,16.2638298 39.9,16.5957447 C39.9,16.9276596 39.786,17.2595745 39.558,17.4808511 C39.444,17.7021277 39.33,17.9234043 39.216,18.2553191 C38.988,19.3617021 39.102,20.9106383 39.216,22.4595745 C39.33,23.4553191 39.33,24.3404255 39.33,25.1148936 C39.33,25.3361702 39.33,25.6680851 39.216,25.8893617 C39.102,26.5531915 38.988,27.2170213 39.672,27.6595745 L39.786,27.7702128 L39.672,27.8808511 C39.444,28.1021277 39.444,28.5446809 39.33,28.8765957 C39.33,29.2085106 39.216,29.6510638 39.102,29.8723404 C39.102,30.093617 39.216,30.2042553 39.33,30.3148936 C39.558,30.4255319 39.786,30.6468085 39.672,30.9787234 L39.672,33.412766 C39.672,35.0723404 39.558,36.8425532 39.9,38.3914894 C39.9,38.7234043 40.128,39.0553191 40.242,39.4978723 C40.47,40.7148936 40.926,42.0425532 40.47,43.2595745 L40.47,43.2595745 Z M36.366,12.2808511 C36.936,12.2808511 37.506,12.3914894 38.076,12.7234043 L38.19,12.7234043 L38.19,12.8340426 L38.19,23.012766 C38.19,26.5531915 38.304,30.3148936 38.19,33.9659574 C38.19,34.187234 38.304,34.2978723 38.418,34.4085106 C38.646,34.5191489 38.874,34.7404255 38.76,35.293617 C38.532,36.9531915 38.874,38.5021277 39.216,39.6085106 C39.33,39.8297872 39.33,40.0510638 39.33,40.2723404 C39.444,40.6042553 39.444,40.8255319 39.444,41.1574468 C39.444,41.9319149 39.558,42.5957447 40.242,42.8170213 C40.584,41.8212766 40.128,40.7148936 39.786,39.7191489 C39.672,39.2765957 39.444,38.9446809 39.444,38.612766 C39.102,36.9531915 39.216,35.1829787 39.216,33.5234043 L39.216,31.0893617 C39.216,30.7574468 39.102,30.7574468 38.988,30.6468085 C38.76,30.5361702 38.532,30.3148936 38.646,29.9829787 L38.646,29.9829787 C38.76,29.7617021 38.76,29.4297872 38.874,29.0978723 C38.874,28.6553191 38.988,28.212766 39.216,27.9914894 C38.532,27.4382979 38.646,26.6638298 38.76,26.1106383 C38.76,25.8893617 38.874,25.5574468 38.874,25.3361702 C38.874,24.5617021 38.76,23.6765957 38.76,22.6808511 C38.646,21.1319149 38.532,19.5829787 38.76,18.4765957 C38.874,18.1446809 38.988,17.812766 39.102,17.5914894 C39.216,17.3702128 39.33,17.0382979 39.33,16.706383 C39.33,16.3744681 39.216,16.2638298 39.102,16.0425532 C38.988,15.9319149 38.988,15.8212766 38.874,15.6 C38.646,14.8255319 38.874,14.6042553 38.988,14.2723404 C38.988,14.2723404 38.988,14.1617021 39.102,14.1617021 C39.216,13.8297872 39.216,13.6085106 39.216,13.2765957 C39.216,12.9446809 39.102,12.5021277 39.558,12.2808511 L39.558,12.2808511 L39.558,12.2808511 C40.926,12.5021277 42.066,12.612766 43.32,12.612766 L43.32,12.612766 C44.004,12.8340426 44.232,13.4978723 44.46,13.9404255 C44.574,14.1617021 44.688,14.3829787 44.688,14.493617 C44.916,14.7148936 45.144,14.9361702 45.372,15.0468085 C45.714,15.2680851 46.17,15.6 46.284,16.2638298 C46.398,16.706383 46.284,17.1489362 46.17,17.5914894 C46.056,18.1446809 45.942,18.6978723 46.284,19.3617021 L46.284,19.3617021 L46.284,19.3617021 C46.284,19.9148936 45.714,19.9148936 45.486,19.9148936 L45.372,19.9148936 C45.942,21.5744681 45.714,24.2297872 45.144,25.5574468 L45.144,25.6680851 C45.486,26.7744681 45.714,27.5489362 45.258,28.7659574 C45.942,29.8723404 45.6,31.4212766 45.372,32.7489362 C45.258,33.1914894 45.144,33.6340426 45.144,34.0765957 C45.714,34.9617021 45.714,36.2893617 45.828,37.6170213 C45.942,39.4978723 45.942,41.1574468 47.31,41.7106383 C47.766,40.7148936 47.424,40.0510638 46.968,39.2765957 C46.74,38.8340426 46.398,38.2808511 46.284,37.7276596 C46.056,36.5106383 46.17,34.9617021 46.284,33.3021277 C46.398,32.1957447 46.512,30.9787234 46.512,29.8723404 C46.512,29.0978723 46.398,28.3234043 46.398,27.5489362 C46.284,26.4425532 46.284,25.4468085 46.284,24.5617021 C46.398,23.5659574 46.512,22.5702128 46.626,21.6851064 C46.854,19.9148936 47.082,18.2553191 46.854,16.706383 C46.512,14.7148936 45.942,14.1617021 44.574,13.1659574 C43.548,12.3914894 43.434,12.3914894 42.294,12.1702128 C42.066,12.1702128 41.838,12.0595745 41.61,12.0595745 C41.268,11.9489362 40.926,11.7276596 40.698,11.506383 C40.584,11.3957447 40.356,11.2851064 40.242,11.2851064 C40.014,11.2851064 39.786,11.3957447 39.672,11.506383 C39.444,11.6170213 39.33,11.7276596 39.102,11.7276596 C38.874,11.7276596 38.76,11.6170213 38.646,11.506383 L38.532,11.3957447 L38.532,11.2851064 C38.532,11.1744681 38.646,11.0638298 38.646,10.9531915 C38.988,10.2893617 39.216,9.62553191 39.102,8.51914894 C38.988,8.40851064 38.988,8.40851064 38.874,8.40851064 C38.874,8.40851064 38.76,8.40851064 38.646,8.51914894 C38.76,8.74042553 38.532,8.85106383 38.304,8.85106383 C38.076,9.62553191 38.19,10.0680851 38.304,10.8425532 C38.304,10.9531915 38.304,11.1744681 38.418,11.3957447 L38.418,11.506383 L38.304,11.506383 C35.454,12.0595745 32.832,12.612766 31.35,14.0510638 C31.35,14.3829787 31.236,14.7148936 31.008,15.0468085 C30.894,15.3787234 30.666,15.7106383 30.666,16.0425532 C30.666,16.1531915 30.78,16.3744681 30.894,16.5957447 C31.008,16.9276596 31.236,17.3702128 31.236,17.7021277 C31.236,17.9234043 31.122,18.1446809 31.122,18.2553191 C31.008,18.3659574 31.008,18.4765957 31.008,18.587234 C31.008,18.8085106 31.122,19.0297872 31.236,19.1404255 C31.35,19.3617021 31.464,19.5829787 31.578,19.9148936 C31.692,20.3574468 31.692,20.9106383 31.692,21.4638298 C31.692,22.1276596 31.692,22.7914894 31.806,23.3446809 C31.806,23.5659574 31.92,23.787234 32.034,24.0085106 C32.148,24.3404255 32.376,24.5617021 32.376,24.893617 C32.376,25.5574468 32.262,26.2212766 32.148,26.7744681 C32.034,27.4382979 31.92,28.1021277 31.92,28.6553191 C31.92,28.8765957 32.034,29.0978723 32.148,29.3191489 C32.262,29.6510638 32.49,30.093617 32.262,30.6468085 C31.806,31.9744681 31.578,33.412766 31.35,34.9617021 C31.008,37.506383 30.666,39.8297872 29.07,40.8255319 L28.956,40.9361702 L28.842,40.8255319 C26.676,38.612766 26.562,34.6297872 26.334,31.0893617 C26.22,29.2085106 26.22,27.5489362 25.878,26.2212766 L25.878,26.2212766 L25.878,26.2212766 C26.562,25.0042553 26.79,23.3446809 26.676,20.8 L26.676,20.8 L26.676,20.8 C27.246,19.9148936 27.246,18.587234 27.246,17.1489362 L27.246,15.0468085 C27.132,14.8255319 27.018,14.7148936 26.79,14.493617 C26.448,14.0510638 26.106,13.7191489 25.878,13.1659574 L25.422,13.1659574 L25.422,13.1659574 C26.448,14.8255319 26.79,16.4851064 26.676,18.587234 L26.676,18.587234 C25.878,20.3574468 25.764,22.6808511 25.764,25.0042553 C25.764,25.5574468 25.764,26.2212766 25.65,26.7744681 C25.536,30.2042553 25.764,33.6340426 25.992,37.2851064 C26.334,37.8382979 26.676,38.612766 26.904,39.2765957 C27.474,40.7148936 27.93,42.1531915 29.526,42.4851064 C29.64,41.9319149 29.982,41.2680851 30.324,40.7148936 C30.894,39.7191489 31.464,38.612766 31.122,37.3957447 L31.122,37.2851064 L31.236,37.1744681 C31.92,36.7319149 31.92,35.9574468 31.92,35.0723404 C31.92,34.6297872 31.92,34.187234 32.034,33.6340426 C32.034,33.3021277 32.262,33.0808511 32.376,32.8595745 C32.49,32.6382979 32.604,32.4170213 32.604,32.1957447 C32.604,31.7531915 32.604,31.0893617 32.49,30.4255319 C32.376,29.7617021 32.376,29.2085106 32.376,28.5446809 C32.49,25.1148936 32.262,22.2382979 32.034,19.5829787 L32.034,19.1404255 C30.78,17.9234043 31.236,15.3787234 32.034,13.8297872 L32.034,13.8297872 L32.148,13.8297872 C32.49,13.7191489 32.946,13.4978723 33.402,13.2765957 C34.428,12.7234043 35.34,12.2808511 36.366,12.2808511 Z M23.484,12.5021277 C23.712,12.9446809 24.282,13.1659574 25.308,13.1659574 L25.536,13.1659574 C25.194,13.0553191 24.852,12.9446809 24.624,12.8340426 C24.282,12.612766 23.94,12.5021277 23.484,12.5021277 Z M18.354,43.0382979 L18.354,43.0382979 L18.24,43.0382979 L18.24,43.0382979 C17.1,42.1531915 18.126,39.387234 18.354,38.7234043 C18.468,38.2808511 18.354,38.0595745 18.126,37.7276596 C18.012,37.506383 17.898,37.2851064 17.898,37.0638298 L17.898,37.0638298 L17.898,37.0638298 C18.924,30.9787234 18.924,24.4510638 18.924,17.5914894 L18.924,12.7234043 C18.696,12.612766 18.354,12.612766 18.012,12.612766 C17.67,12.612766 17.328,12.612766 16.986,12.7234043 C16.644,12.7234043 16.416,12.8340426 16.074,12.8340426 L16.074,12.8340426 C15.732,12.8340426 15.618,12.8340426 15.39,12.7234043 L15.276,12.612766 L15.39,12.5021277 C15.732,11.7276596 16.872,11.7276596 17.898,11.7276596 L18.924,11.7276596 C18.924,11.3957447 18.81,11.0638298 18.696,10.6212766 C18.468,9.95744681 18.354,9.18297872 18.924,8.85106383 L18.924,8.85106383 L19.608,8.85106383 L19.608,8.96170213 C19.836,9.29361702 19.836,9.95744681 19.836,10.6212766 L19.836,11.506383 C19.95,11.8382979 20.406,11.9489362 20.862,11.9489362 C21.318,12.0595745 21.66,12.0595745 22.002,12.3914894 L22.116,12.5021277 L22.116,12.612766 C22.002,12.9446809 21.774,13.0553191 21.432,13.0553191 C21.204,13.0553191 20.976,12.9446809 20.862,12.9446809 C20.634,12.8340426 20.292,12.7234043 20.178,12.8340426 C19.722,15.1574468 19.95,18.0340426 20.064,21.1319149 C20.178,24.5617021 20.406,28.1021277 19.836,31.3106383 C19.608,32.9702128 19.494,35.6255319 19.494,38.1702128 L19.494,39.8297872 L19.494,40.7148936 L19.494,41.9319149 C19.494,42.0425532 19.38,42.1531915 19.266,42.1531915 L19.152,42.2638298 C19.152,42.4851064 19.152,42.9276596 18.924,43.1489362 C18.696,42.9276596 18.582,43.0382979 18.354,43.0382979 Z M18.354,42.706383 L18.354,42.706383 C18.468,42.706383 18.582,42.706383 18.582,42.5957447 C18.696,42.4851064 18.696,42.1531915 18.696,41.9319149 C18.696,41.7106383 18.924,41.6 19.038,41.4893617 L19.152,41.4893617 L19.152,40.2723404 L19.152,39.387234 L19.152,37.7276596 C19.152,35.0723404 19.266,32.4170213 19.494,30.7574468 C20.064,27.5489362 19.836,24.0085106 19.722,20.5787234 C19.608,17.4808511 19.494,14.493617 19.836,12.1702128 L19.836,12.1702128 L19.836,12.1702128 C19.95,12.0595745 20.064,12.0595745 20.292,12.0595745 C20.52,12.0595745 20.748,12.1702128 20.976,12.2808511 C21.204,12.3914894 21.318,12.3914894 21.432,12.3914894 C21.546,12.3914894 21.66,12.3914894 21.774,12.1702128 C21.546,12.0595745 21.204,11.9489362 20.862,11.8382979 C20.406,11.7276596 19.836,11.6170213 19.608,11.1744681 L19.608,11.1744681 L19.608,10.1787234 C19.608,9.62553191 19.608,9.07234043 19.494,8.74042553 L19.038,8.74042553 C18.696,8.96170213 18.81,9.51489362 18.924,10.1787234 C19.038,10.6212766 19.152,11.0638298 19.152,11.506383 L19.152,11.6170213 L19.038,11.6170213 C18.696,11.6170213 18.24,11.7276596 17.784,11.7276596 C16.872,11.7276596 15.96,11.7276596 15.618,12.1702128 L16.074,12.1702128 L16.074,12.1702128 C16.302,12.1702128 16.644,12.1702128 16.872,12.0595745 C17.214,12.0595745 17.556,11.9489362 17.898,11.9489362 C18.354,11.9489362 18.81,12.0595745 19.038,12.1702128 L19.152,12.1702128 L19.152,12.2808511 L19.152,17.2595745 C19.152,24.1191489 19.152,30.6468085 18.126,36.7319149 C18.126,36.9531915 18.24,37.0638298 18.354,37.2851064 C18.468,37.6170213 18.696,37.9489362 18.582,38.5021277 C18.24,39.6085106 17.556,41.9319149 18.354,42.706383 Z M8.892,42.4851064 L8.892,42.4851064 L8.778,42.4851064 L8.778,42.4851064 C8.094,41.7106383 8.778,40.8255319 9.348,40.0510638 C9.69,39.7191489 9.918,39.2765957 10.146,38.9446809 C10.26,37.2851064 10.488,35.6255319 10.83,33.8553191 C11.4,30.3148936 11.97,26.6638298 11.4,23.1234043 C11.4,22.7914894 11.286,22.4595745 11.172,22.0170213 C10.83,20.4680851 10.374,18.3659574 10.602,16.8170213 C10.83,14.8255319 12.084,13.6085106 13.452,12.7234043 L13.566,12.7234043 C13.794,12.7234043 13.908,12.7234043 14.022,12.8340426 C14.136,12.8340426 14.136,12.9446809 14.136,12.9446809 L14.364,12.9446809 L14.25,13.1659574 C14.022,13.4978723 13.794,13.7191489 13.452,14.0510638 C12.996,14.493617 12.54,14.9361702 12.312,15.4893617 C11.742,16.4851064 11.514,19.4723404 12.54,20.9106383 L12.54,20.9106383 L12.54,20.9106383 C12.426,21.6851064 12.54,22.4595745 12.654,23.2340426 C12.768,24.2297872 12.882,25.2255319 12.426,26 C12.996,27.5489362 12.882,33.7446809 11.97,35.4042553 C12.084,36.2893617 11.856,36.8425532 11.628,37.3957447 C11.4,37.9489362 11.172,38.5021277 11.4,39.387234 L11.4,39.4978723 L11.286,39.4978723 C10.944,39.7191489 10.716,40.2723404 10.602,40.8255319 C10.26,41.4893617 10.032,42.4851064 8.892,42.4851064 Z M13.452,12.8340426 C11.97,13.9404255 10.944,14.9361702 10.83,16.706383 C10.716,18.2553191 11.058,20.3574468 11.4,21.906383 C11.514,22.3489362 11.514,22.6808511 11.628,23.012766 C12.198,26.5531915 11.628,30.2042553 11.058,33.8553191 C10.83,35.6255319 10.488,37.2851064 10.374,38.9446809 C10.26,39.387234 9.918,39.8297872 9.576,40.1617021 C9.006,40.8255319 8.436,41.4893617 8.892,42.1531915 C9.804,42.1531915 9.918,41.4893617 10.146,40.6042553 C10.26,40.0510638 10.374,39.4978723 10.83,39.1659574 C10.716,38.2808511 10.944,37.7276596 11.172,37.1744681 C11.4,36.6212766 11.628,36.0680851 11.514,35.293617 L11.514,35.293617 L11.514,35.293617 C12.312,33.8553191 12.54,27.5489362 11.856,26 L11.856,25.8893617 L11.856,25.7787234 C12.312,25.1148936 12.198,24.1191489 12.084,23.1234043 C11.97,22.3489362 11.856,21.5744681 11.97,20.8 C10.944,19.2510638 11.286,16.1531915 11.742,15.1574468 C12.084,14.493617 12.54,14.0510638 12.996,13.6085106 C13.224,13.387234 13.452,13.1659574 13.566,12.9446809 C13.566,12.9446809 13.452,12.9446809 13.452,12.8340426 C13.566,12.8340426 13.566,12.8340426 13.452,12.8340426 Z" id="Shape" fill="#FFFFFF" fill-rule="nonzero"></path>
            </g>
        </g>
    </g>
</svg>