<?xml version="1.0" encoding="utf-8"?>
<!-- Generator: Adobe Illustrator 15.1.0, SVG Export Plug-In  -->
<!DOCTYPE svg PUBLIC "-//W3C//DTD SVG 1.1//EN" "http://www.w3.org/Graphics/SVG/1.1/DTD/svg11.dtd" [
	<!ENTITY ns_flows "http://ns.adobe.com/Flows/1.0/">
]>
<svg version="1.1"
	 xmlns="http://www.w3.org/2000/svg" xmlns:xlink="http://www.w3.org/1999/xlink" xmlns:a="http://ns.adobe.com/AdobeSVGViewerExtensions/3.0/"
	 x="0px" y="0px" width="63px" height="57px" viewBox="-6.248 -4.874 63 57"
	 overflow="visible" enable-background="new -6.248 -4.874 63 57" xml:space="preserve">
<defs>
</defs>
<path fill="none" stroke="#C1272D" stroke-miterlimit="10" d="M49.953,42.726c0,2.428-2.088,4.397-4.664,4.397H5.166
	c-2.576,0-4.666-1.97-4.666-4.397V4.898C0.5,2.468,2.59,0.5,5.166,0.5h40.123c2.576,0,4.664,1.969,4.664,4.398V42.726L49.953,42.726
	z"/>
<path fill="#C1272D" stroke="#C1272D" stroke-width="0.25" d="M34.016,8.347c-0.276,0.978-0.116,1.459,0,2.416
	c-2.438,0.443-4.813,0.943-6.217,2.419c0.016,0.606-0.521,1.235-0.518,1.898c0,0.299,0.482,0.986,0.518,1.554
	c0.021,0.363-0.246,0.561-0.172,0.864c0.107,0.454,0.451,0.762,0.518,1.209c0.142,0.954-0.053,2.127,0.173,3.108
	c0.116,0.503,0.491,0.889,0.518,1.381c0.066,1.204-0.465,2.319-0.346,3.452c0.067,0.631,0.582,1.029,0.346,1.729
	c-1.146,3.104-0.586,7.745-2.762,9.152c-2.797-2.916-1.72-9.543-2.59-13.123c0.653-1.245,0.766-3.033,0.688-5.009
	c0.816-1.16,0.396-3.201,0.521-5.353c-0.406-0.573-0.841-1.117-1.209-1.727c-1.052-0.043-1.554-0.635-2.591-0.689
	c0.229,0.748,1.056,0.9,2.07,0.862c0.836,1.368,1.207,2.878,1.037,4.835c-0.889,2.048-0.742,4.865-0.863,7.426
	c-0.146,3.093,0.084,6.313,0.347,9.496c1.038,1.665,1.106,4.301,3.28,4.835c0.068-1.373,1.91-2.893,1.381-4.835
	c0.97-0.707,0.49-1.931,0.689-3.281c0.078-0.522,0.465-0.899,0.518-1.382c0.095-0.827-0.2-2.104-0.172-3.279
	c0.082-3.297-0.149-6.069-0.346-8.634c-1.07-1.034-0.662-3.329,0-4.662c1.371-0.428,3.146-2.051,5.008-0.864
	c-0.09,6.582,0.121,12.764,0,19.167c-0.065,0.642,0.699,0.45,0.519,1.207c-0.31,1.838,0.284,3.478,0.521,4.49
	c0.213,0.936-0.117,2.276,1.034,2.417c0.558-1.332-0.534-3.054-0.69-3.972c-0.369-2.178-0.125-4.512-0.172-6.733
	c0.094-0.61-0.611-0.425-0.519-1.036c0.308-0.5,0.063-1.548,0.519-1.898c-0.912-0.607-0.351-1.584-0.347-2.417
	c0.011-1.908-0.463-4.55-0.172-6.217c0.11-0.644,0.49-0.97,0.519-1.554c0.024-0.533-0.25-0.646-0.347-1.036
	c-0.168-0.694,0.004-0.871,0.175-1.21c0.313-0.631-0.183-1.256,0.344-1.553c1.018,0.193,2.082,0.336,3.281,0.345
	c0.85,0.25,0.875,1.312,1.209,1.728c0.5,0.62,1.17,0.698,1.381,1.554c0.213,0.865-0.478,1.711,0,2.763
	c-0.025,0.378-0.435,0.371-0.863,0.346c0.598,1.362,0.451,3.993-0.172,5.18c0.324,1.111,0.551,1.755,0.172,2.935
	c0.889,1.33-0.023,3.438-0.172,4.836c1.195,1.854-0.176,6.275,2.072,7.08c0.791-1.683-0.574-2.272-0.863-3.799
	c-0.332-1.752,0.174-4.421,0.172-7.08c0-1.646-0.285-3.365-0.172-4.834c0.201-2.629,0.805-5.015,0.518-7.079
	c-0.266-1.913-0.879-2.41-2.072-3.281c-1.135-0.829-1.025-0.704-2.59-1.036c-0.475-0.101-0.99-0.673-1.209-0.691
	c-0.521-0.043-0.977,0.615-1.381,0.174c0.309-0.727,0.709-1.362,0.518-2.59C34.689,7.97,34.559,8.432,34.016,8.347z M17.266,10.937
	c-1.104,0.161-2.698-0.168-3.106,0.691c0.646,0.305,2.256-0.31,3.106,0.172c-0.051,7.98,0.207,15.317-0.862,22.102
	c0.06,0.576,0.5,0.767,0.346,1.555c-0.305,0.675-1.062,3.023-0.174,3.799c0.64,0.062,0.521-0.854,0.521-0.863
	c-0.008-0.232,0.319-0.219,0.344-0.346c0.076-0.379-0.012-1.281,0-1.898c0.053-2.647,0.039-5.94,0.346-7.771
	c0.926-5.491-0.42-12.339,0.346-16.748c0.512-0.445,1.338,0.721,1.728-0.174c-0.46-0.461-1.605-0.236-1.898-0.863
	c-0.069-0.735,0.166-1.778-0.174-2.244c-0.172,0-0.347,0-0.519,0C16.564,8.786,17.354,10.032,17.266,10.937z M12.258,11.972
	c-1.213,0.895-2.24,1.904-2.418,3.627c-0.188,1.857,0.496,4.483,0.691,5.698c0.77,4.79-0.727,9.839-1.035,14.331
	c-0.328,1.018-1.99,2.078-1.209,3.107c1.59,0.037,0.957-2.148,1.898-2.762c-0.24-1.623,0.742-2.021,0.518-3.627
	c0.781-1.382,0.859-7.07,0.346-8.461c0.766-1.142-0.098-2.941,0.174-4.663c-0.854-1.307-0.643-4.118-0.174-5.007
	c0.484-0.916,1.307-1.447,1.728-2.072C12.555,12.136,12.537,11.924,12.258,11.972z"/>
</svg>
