<?xml version="1.0" encoding="utf-8"?>
<!-- Generator: Adobe Illustrator 15.1.0, SVG Export Plug-In  -->
<!DOCTYPE svg PUBLIC "-//W3C//DTD SVG 1.1//EN" "http://www.w3.org/Graphics/SVG/1.1/DTD/svg11.dtd" [
	<!ENTITY ns_flows "http://ns.adobe.com/Flows/1.0/">
]>
<svg version="1.1"
	 xmlns="http://www.w3.org/2000/svg" xmlns:xlink="http://www.w3.org/1999/xlink" xmlns:a="http://ns.adobe.com/AdobeSVGViewerExtensions/3.0/"
	 x="0px" y="0px" width="63px" height="57px" viewBox="-6.7 -5.4 63 57"
	 overflow="visible" enable-background="new -6.7 -5.4 63 57" xml:space="preserve">
<defs>
</defs>
<path fill-rule="evenodd" clip-rule="evenodd" fill="#C1272D" d="M49.5,42.2c0,2.4-2.1,4.4-4.7,4.4H4.7c-2.6,0-4.7-2-4.7-4.4V4.4
	C0,2,2.1,0,4.7,0h40.1c2.6,0,4.7,2,4.7,4.4V42.2z"/>
<path fill-rule="evenodd" clip-rule="evenodd" fill="#FFFFFF" d="M33.5,7.8c-0.3,1-0.1,1.5,0,2.4c-2.4,0.4-4.8,0.9-6.2,2.4
	c0,0.6-0.5,1.2-0.5,1.9c0,0.3,0.5,1,0.5,1.6c0,0.4-0.2,0.6-0.2,0.9c0.1,0.5,0.5,0.8,0.5,1.2c0.1,1-0.1,2.1,0.2,3.1
	c0.1,0.5,0.5,0.9,0.5,1.4c0.1,1.2-0.5,2.3-0.3,3.5c0.1,0.6,0.6,1,0.3,1.7c-1.1,3.1-0.6,7.7-2.8,9.2c-2.8-2.9-1.7-9.5-2.6-13.1
	c0.7-1.2,0.8-3,0.7-5c0.8-1.2,0.4-3.2,0.5-5.4c-0.4-0.6-0.8-1.1-1.2-1.7c-1.1,0-1.6-0.6-2.6-0.7c0.2,0.7,1.1,0.9,2.1,0.9
	c0.8,1.4,1.2,2.9,1,4.8c-0.9,2-0.7,4.9-0.9,7.4c-0.1,3.1,0.1,6.3,0.3,9.5c1,1.7,1.1,4.3,3.3,4.8c0.1-1.4,1.9-2.9,1.4-4.8
	c1-0.7,0.5-1.9,0.7-3.3c0.1-0.5,0.5-0.9,0.5-1.4c0.1-0.8-0.2-2.1-0.2-3.3c0.1-3.3-0.2-6.1-0.3-8.6c-1.1-1-0.7-3.3,0-4.7
	c1.4-0.4,3.1-2.1,5-0.9c-0.1,6.6,0.1,12.8,0,19.2c-0.1,0.6,0.7,0.5,0.5,1.2c-0.3,1.8,0.3,3.5,0.5,4.5c0.2,0.9-0.1,2.3,1,2.4
	c0.6-1.3-0.5-3.1-0.7-4c-0.4-2.2-0.1-4.5-0.2-6.7c0.1-0.6-0.6-0.4-0.5-1c0.3-0.5,0.1-1.5,0.5-1.9c-0.9-0.6-0.3-1.6-0.3-2.4
	c0-1.9-0.5-4.5-0.2-6.2c0.1-0.6,0.5-1,0.5-1.6c0-0.5-0.2-0.6-0.3-1c-0.2-0.7,0-0.9,0.2-1.2c0.3-0.6-0.2-1.3,0.3-1.6
	c1,0.2,2.1,0.3,3.3,0.3c0.8,0.2,0.9,1.3,1.2,1.7c0.5,0.6,1.2,0.7,1.4,1.6c0.2,0.9-0.5,1.7,0,2.8c0,0.4-0.4,0.4-0.9,0.3
	c0.6,1.4,0.5,4-0.2,5.2c0.3,1.1,0.6,1.8,0.2,2.9c0.9,1.3,0,3.4-0.2,4.8c1.2,1.9-0.2,6.3,2.1,7.1c0.8-1.7-0.6-2.3-0.9-3.8
	c-0.3-1.8,0.2-4.4,0.2-7.1c0-1.6-0.3-3.4-0.2-4.8c0.2-2.6,0.8-5,0.5-7.1c-0.3-1.9-0.9-2.4-2.1-3.3c-1.1-0.8-1-0.7-2.6-1
	c-0.5-0.1-1-0.7-1.2-0.7c-0.5,0-1,0.6-1.4,0.2c0.3-0.7,0.7-1.4,0.5-2.6C34.2,7.5,34.1,7.9,33.5,7.8z M16.8,10.4
	c-1.1,0.2-2.7-0.2-3.1,0.7c0.6,0.3,2.3-0.3,3.1,0.2c-0.1,8,0.2,15.3-0.9,22.1c0.1,0.6,0.5,0.8,0.3,1.6c-0.3,0.7-1.1,3-0.2,3.8
	c0.6,0.1,0.5-0.9,0.5-0.9c0-0.2,0.3-0.2,0.3-0.3c0.1-0.4,0-1.3,0-1.9c0.1-2.6,0-5.9,0.3-7.8c0.9-5.5-0.4-12.3,0.3-16.7
	c0.5-0.4,1.3,0.7,1.7-0.2c-0.5-0.5-1.6-0.2-1.9-0.9c-0.1-0.7,0.2-1.8-0.2-2.2c-0.2,0-0.3,0-0.5,0C16.1,8.3,16.9,9.5,16.8,10.4z
	 M11.8,11.5c-1.2,0.9-2.2,1.9-2.4,3.6c-0.2,1.9,0.5,4.5,0.7,5.7c0.8,4.8-0.7,9.8-1,14.3c-0.3,1-2,2.1-1.2,3.1c1.6,0,1-2.1,1.9-2.8
	c-0.2-1.6,0.7-2,0.5-3.6c0.8-1.4,0.9-7.1,0.3-8.5c0.8-1.1-0.1-2.9,0.2-4.7c-0.9-1.3-0.6-4.1-0.2-5c0.5-0.9,1.3-1.4,1.7-2.1
	C12.1,11.6,12,11.4,11.8,11.5z"/>
<path fill="#FFFFFF" d="M35.5,39.1L35.5,39.1c-1-0.1-1.1-1-1.1-1.7c0-0.3,0-0.5-0.1-0.8c0-0.2-0.1-0.4-0.1-0.6c-0.3-1-0.6-2.4-0.4-4
	c0.1-0.3,0-0.4-0.2-0.6c-0.2-0.1-0.4-0.3-0.3-0.6c0.1-3.3,0-6.7,0-9.9c0-3-0.1-6,0-9.2c-0.4-0.2-0.8-0.4-1.3-0.4
	c-0.8,0-1.7,0.4-2.4,0.8c-0.4,0.2-0.8,0.4-1.1,0.5c-0.6,1.3-1,3.5,0,4.5l0,0l0,0.5c0.2,2.4,0.4,5.1,0.3,8.2c0,0.6,0,1.1,0.1,1.7
	c0.1,0.6,0.1,1.2,0.1,1.6c0,0.3-0.1,0.5-0.3,0.7c-0.1,0.2-0.2,0.4-0.3,0.7c-0.1,0.4-0.1,0.8-0.1,1.2c0,0.8,0,1.6-0.6,2.1
	c0.3,1.2-0.3,2.2-0.8,3.1c-0.3,0.6-0.6,1.1-0.6,1.7l0,0.2l-0.1,0c-1.6-0.4-2.1-1.8-2.6-3.1c-0.2-0.6-0.5-1.2-0.8-1.7l0-0.1
	c-0.3-3.2-0.5-6.4-0.3-9.5c0-0.5,0-1.1,0.1-1.6c0.1-2.1,0.1-4.2,0.8-5.8c0.2-1.8-0.2-3.3-1-4.7c-0.1,0-0.1,0-0.2,0
	c-0.7,0-1.7-0.1-1.9-1L20.2,11l0.2,0c0.5,0,0.9,0.2,1.3,0.4c0.4,0.2,0.8,0.3,1.3,0.3l0.1,0l0,0.1c0.3,0.4,0.5,0.8,0.8,1.2
	c0.1,0.2,0.3,0.4,0.4,0.5l0,0l0,0c0,0.7,0,1.3,0,1.9c0,1.4,0.1,2.6-0.5,3.4c0.1,2.4-0.1,3.9-0.7,5c0.3,1.2,0.4,2.8,0.4,4.4
	c0.1,3.1,0.3,6.6,2,8.5c1.2-0.9,1.5-2.9,1.8-5.1c0.2-1.3,0.4-2.7,0.8-3.9c0.1-0.4,0-0.7-0.1-1c-0.1-0.2-0.2-0.4-0.2-0.7
	c-0.1-0.6,0.1-1.2,0.2-1.8c0.1-0.5,0.2-1.1,0.2-1.7c0-0.2-0.1-0.5-0.2-0.7c-0.1-0.2-0.2-0.4-0.3-0.6c-0.1-0.6-0.1-1.2-0.1-1.8
	c0-0.5,0-0.9-0.1-1.3c0-0.2-0.1-0.4-0.2-0.6c-0.1-0.2-0.2-0.4-0.3-0.6c0-0.2,0-0.4,0.1-0.5c0.1-0.1,0.1-0.2,0.1-0.4
	c0-0.3-0.2-0.6-0.3-0.9c-0.1-0.3-0.2-0.5-0.2-0.6c0-0.4,0.1-0.7,0.3-1c0.1-0.3,0.2-0.6,0.2-0.9l0-0.1l0,0c1.4-1.4,3.6-2,6.2-2.4
	c0-0.1,0-0.2-0.1-0.4c-0.1-0.7-0.2-1.2,0.1-2l0-0.1l0.1,0c0.2,0,0.3,0,0.5-0.1c0.2-0.1,0.4-0.1,0.6,0.1l0,0l0,0
	c0.2,1.1-0.1,1.7-0.4,2.4c0,0.1-0.1,0.1-0.1,0.2c0.2,0.1,0.3,0,0.6-0.1c0.2-0.1,0.4-0.2,0.7-0.2c0.1,0,0.3,0.1,0.5,0.3
	c0.2,0.2,0.5,0.4,0.7,0.4c0.2,0,0.4,0.1,0.6,0.1c1,0.2,1.1,0.2,2.1,0.9c1.2,0.9,1.9,1.4,2.1,3.4c0.2,1.4,0,2.9-0.2,4.5
	c-0.1,0.8-0.2,1.7-0.3,2.6c-0.1,0.8,0,1.7,0.1,2.7c0,0.7,0.1,1.4,0.1,2.1c0,1.1-0.1,2.1-0.2,3.1c-0.1,1.5-0.2,2.9,0,3.9
	c0.1,0.5,0.3,1,0.6,1.4c0.4,0.7,0.8,1.4,0.3,2.5l0,0.1l-0.1,0c-1.4-0.5-1.5-2.3-1.6-4C40,33,39.9,31.8,39.5,31l0,0l0,0
	c0-0.4,0.1-0.8,0.2-1.3c0.3-1.2,0.6-2.5,0-3.5l0,0l0-0.1c0.3-1.1,0.2-1.7-0.1-2.7l-0.1-0.2l0,0c0.6-1.1,0.8-3.7,0.2-5.1l-0.1-0.2
	l0.2,0c0.1,0,0.2,0,0.3,0c0.4,0,0.4-0.1,0.5-0.2c-0.3-0.6-0.2-1.2-0.1-1.7c0.1-0.4,0.1-0.7,0.1-1.1c-0.1-0.5-0.4-0.7-0.7-0.9
	c-0.2-0.2-0.4-0.3-0.6-0.6c-0.1-0.2-0.2-0.4-0.3-0.6c-0.2-0.4-0.3-0.9-0.8-1.1c-1,0-2.1-0.1-3.2-0.3c-0.2,0.1-0.2,0.3-0.1,0.6
	c0,0.3,0,0.6-0.1,0.9c0,0,0,0.1-0.1,0.1c-0.1,0.3-0.2,0.4-0.1,1c0,0.1,0.1,0.2,0.2,0.3c0.1,0.2,0.2,0.4,0.2,0.7
	c0,0.3-0.1,0.6-0.3,0.8c-0.1,0.2-0.2,0.4-0.3,0.7c-0.2,1-0.1,2.4,0,3.8c0.1,0.9,0.1,1.7,0.1,2.4c0,0.2,0,0.5-0.1,0.7
	c-0.1,0.6-0.2,1.2,0.4,1.6l0.1,0.1l-0.1,0.1c-0.2,0.2-0.2,0.6-0.3,0.9c0,0.3-0.1,0.7-0.2,0.9c0,0.2,0.1,0.3,0.2,0.4
	c0.2,0.1,0.4,0.3,0.3,0.6c0,0.7,0,1.4,0,2.2c0,1.5-0.1,3.1,0.2,4.5c0,0.3,0.2,0.6,0.3,1C35.5,36.8,35.9,38,35.5,39.1L35.5,39.1z
	 M31.9,11.1c0.5,0,1,0.1,1.5,0.4l0.1,0l0,0.1c0,3.1,0,6.2,0,9.2c0,3.2,0.1,6.6,0,9.9c0,0.2,0.1,0.3,0.2,0.4c0.2,0.1,0.4,0.3,0.3,0.8
	c-0.2,1.5,0.1,2.9,0.4,3.9c0.1,0.2,0.1,0.4,0.1,0.6c0.1,0.3,0.1,0.5,0.1,0.8c0,0.7,0.1,1.3,0.7,1.5c0.3-0.9-0.1-1.9-0.4-2.8
	c-0.1-0.4-0.3-0.7-0.3-1c-0.3-1.5-0.2-3.1-0.2-4.6c0-0.7,0-1.5,0-2.2c0-0.3-0.1-0.3-0.2-0.4c-0.2-0.1-0.4-0.3-0.3-0.6l0,0
	c0.1-0.2,0.1-0.5,0.2-0.8c0-0.4,0.1-0.8,0.3-1c-0.6-0.5-0.5-1.2-0.4-1.7c0-0.2,0.1-0.5,0.1-0.7c0-0.7-0.1-1.5-0.1-2.4
	c-0.1-1.4-0.2-2.8,0-3.8c0.1-0.3,0.2-0.6,0.3-0.8c0.1-0.2,0.2-0.5,0.2-0.8c0-0.3-0.1-0.4-0.2-0.6c-0.1-0.1-0.1-0.2-0.2-0.4
	c-0.2-0.7,0-0.9,0.1-1.2c0,0,0-0.1,0.1-0.1c0.1-0.3,0.1-0.5,0.1-0.8c0-0.3-0.1-0.7,0.3-0.9l0,0l0,0c1.2,0.2,2.2,0.3,3.3,0.3l0,0
	c0.6,0.2,0.8,0.8,1,1.2c0.1,0.2,0.2,0.4,0.2,0.5c0.2,0.2,0.4,0.4,0.6,0.5c0.3,0.2,0.7,0.5,0.8,1.1c0.1,0.4,0,0.8-0.1,1.2
	c-0.1,0.5-0.2,1,0.1,1.6l0,0l0,0c0,0.5-0.5,0.5-0.7,0.5c0,0-0.1,0-0.1,0c0.5,1.5,0.3,3.9-0.2,5.1l0,0.1c0.3,1,0.5,1.7,0.1,2.8
	c0.6,1,0.3,2.4,0.1,3.6c-0.1,0.4-0.2,0.8-0.2,1.2c0.5,0.8,0.5,2,0.6,3.2c0.1,1.7,0.1,3.2,1.3,3.7c0.4-0.9,0.1-1.5-0.3-2.2
	c-0.2-0.4-0.5-0.9-0.6-1.4c-0.2-1.1-0.1-2.5,0-4c0.1-1,0.2-2.1,0.2-3.1c0-0.7-0.1-1.4-0.1-2.1c-0.1-1-0.1-1.9-0.1-2.7
	c0.1-0.9,0.2-1.8,0.3-2.6c0.2-1.6,0.4-3.1,0.2-4.5c-0.3-1.8-0.8-2.3-2-3.2c-0.9-0.7-1-0.7-2-0.9c-0.2,0-0.4-0.1-0.6-0.1
	c-0.3-0.1-0.6-0.3-0.8-0.5c-0.1-0.1-0.3-0.2-0.4-0.2c-0.2,0-0.4,0.1-0.5,0.2c-0.2,0.1-0.3,0.2-0.5,0.2c-0.2,0-0.3-0.1-0.4-0.2
	l-0.1-0.1l0-0.1c0-0.1,0.1-0.2,0.1-0.3c0.3-0.6,0.5-1.2,0.4-2.2c-0.1-0.1-0.1-0.1-0.2-0.1c0,0-0.1,0-0.2,0.1C34,7.9,33.8,8,33.6,8
	c-0.2,0.7-0.1,1.1,0,1.8c0,0.1,0,0.3,0.1,0.5l0,0.1l-0.1,0c-2.5,0.5-4.8,1-6.1,2.3c0,0.3-0.1,0.6-0.3,0.9c-0.1,0.3-0.3,0.6-0.3,0.9
	c0,0.1,0.1,0.3,0.2,0.5c0.1,0.3,0.3,0.7,0.3,1c0,0.2-0.1,0.4-0.1,0.5c-0.1,0.1-0.1,0.2-0.1,0.3c0,0.2,0.1,0.4,0.2,0.5
	c0.1,0.2,0.2,0.4,0.3,0.7c0.1,0.4,0.1,0.9,0.1,1.4c0,0.6,0,1.2,0.1,1.7c0,0.2,0.1,0.4,0.2,0.6c0.1,0.3,0.3,0.5,0.3,0.8
	c0,0.6-0.1,1.2-0.2,1.7c-0.1,0.6-0.2,1.2-0.2,1.7c0,0.2,0.1,0.4,0.2,0.6c0.1,0.3,0.3,0.7,0.1,1.2c-0.4,1.2-0.6,2.5-0.8,3.9
	c-0.3,2.3-0.6,4.4-2,5.3l-0.1,0.1l-0.1-0.1c-1.9-2-2-5.6-2.2-8.8c-0.1-1.7-0.1-3.2-0.4-4.4l0,0l0,0c0.6-1.1,0.8-2.6,0.7-4.9l0,0l0,0
	c0.5-0.8,0.5-2,0.5-3.3c0-0.6,0-1.3,0-1.9c-0.1-0.2-0.2-0.3-0.4-0.5c-0.3-0.4-0.6-0.7-0.8-1.2c-0.1,0-0.2,0-0.4,0l0,0
	c0.9,1.5,1.2,3,1.1,4.9l0,0c-0.7,1.6-0.8,3.7-0.8,5.8c0,0.5,0,1.1-0.1,1.6c-0.1,3.1,0.1,6.2,0.3,9.5c0.3,0.5,0.6,1.2,0.8,1.8
	c0.5,1.3,0.9,2.6,2.3,2.9c0.1-0.5,0.4-1.1,0.7-1.6c0.5-0.9,1-1.9,0.7-3l0-0.1l0.1-0.1c0.6-0.4,0.6-1.1,0.6-1.9c0-0.4,0-0.8,0.1-1.3
	c0-0.3,0.2-0.5,0.3-0.7c0.1-0.2,0.2-0.4,0.2-0.6c0-0.4,0-1-0.1-1.6c-0.1-0.6-0.1-1.1-0.1-1.7c0.1-3.1-0.1-5.7-0.3-8.1l0-0.4
	c-1.1-1.1-0.7-3.4,0-4.8l0,0l0.1,0c0.3-0.1,0.7-0.3,1.1-0.5C30.2,11.5,31,11.1,31.9,11.1z M20.6,11.3c0.2,0.4,0.7,0.6,1.6,0.6
	c0.1,0,0.2,0,0.2,0c-0.3-0.1-0.6-0.2-0.8-0.3C21.3,11.4,21,11.3,20.6,11.3z M16.1,38.9C16.1,38.9,16.1,38.9,16.1,38.9l-0.1,0l0,0
	c-1-0.8-0.1-3.3,0.1-3.9c0.1-0.4,0-0.6-0.2-0.9c-0.1-0.2-0.2-0.4-0.2-0.6l0,0l0,0c0.9-5.5,0.9-11.4,0.9-17.6c0-1.4,0-2.9,0-4.4
	c-0.2-0.1-0.5-0.1-0.8-0.1c-0.3,0-0.6,0-0.9,0.1c-0.3,0-0.5,0.1-0.8,0.1l0,0c-0.3,0-0.4,0-0.6-0.1l-0.1-0.1l0.1-0.1
	c0.3-0.7,1.3-0.7,2.2-0.7c0.3,0,0.6,0,0.9,0c0-0.3-0.1-0.6-0.2-1c-0.2-0.6-0.3-1.3,0.2-1.6l0,0h0.6l0,0.1c0.2,0.3,0.2,0.9,0.2,1.5
	c0,0.3,0,0.6,0,0.8c0.1,0.3,0.5,0.4,0.9,0.4c0.4,0.1,0.7,0.1,1,0.4l0.1,0.1l0,0.1c-0.1,0.3-0.3,0.4-0.6,0.4c-0.2,0-0.4-0.1-0.5-0.1
	c-0.2-0.1-0.5-0.2-0.6-0.1c-0.4,2.1-0.2,4.7-0.1,7.5c0.1,3.1,0.3,6.3-0.2,9.2c-0.2,1.5-0.3,3.9-0.3,6.2c0,0.5,0,1,0,1.5
	c0,0.2,0,0.5,0,0.8c0,0.5,0,0.9,0,1.1c0,0.1-0.1,0.2-0.2,0.2c-0.1,0.1-0.1,0.1-0.1,0.1c0,0.2,0,0.6-0.2,0.8
	C16.4,38.8,16.3,38.9,16.1,38.9z M16.1,38.6C16.1,38.6,16.1,38.6,16.1,38.6c0.1,0,0.2,0,0.2-0.1c0.1-0.1,0.1-0.4,0.1-0.6
	c0-0.2,0.2-0.3,0.3-0.4c0,0,0.1,0,0.1,0c0-0.2,0-0.6,0-1.1c0-0.3,0-0.6,0-0.8c0-0.5,0-1,0-1.5c0-2.4,0.1-4.8,0.3-6.3
	c0.5-2.9,0.3-6.1,0.2-9.2c-0.1-2.8-0.2-5.5,0.1-7.6l0,0l0,0c0.1-0.1,0.2-0.1,0.4-0.1c0.2,0,0.4,0.1,0.6,0.2c0.2,0.1,0.3,0.1,0.4,0.1
	c0.1,0,0.2,0,0.3-0.2c-0.2-0.1-0.5-0.2-0.8-0.3c-0.4-0.1-0.9-0.2-1.1-0.6l0,0c0-0.3,0-0.6,0-0.9c0-0.5,0-1-0.1-1.3h-0.4
	c-0.3,0.2-0.2,0.7-0.1,1.3c0.1,0.4,0.2,0.8,0.2,1.2l0,0.1l-0.1,0c-0.3,0-0.7,0.1-1.1,0.1c-0.8,0-1.6,0-1.9,0.4c0.1,0,0.2,0,0.4,0
	l0,0c0.2,0,0.5,0,0.7-0.1c0.3,0,0.6-0.1,0.9-0.1c0.4,0,0.8,0.1,1,0.2l0.1,0v0.1c0,1.5,0,3,0,4.5c0,6.2,0,12.1-0.9,17.6
	c0,0.2,0.1,0.3,0.2,0.5c0.1,0.3,0.3,0.6,0.2,1.1C16,35.8,15.4,37.9,16.1,38.6z M7.8,38.4L7.8,38.4l-0.1,0l0,0
	c-0.6-0.7,0-1.5,0.5-2.2c0.3-0.3,0.5-0.7,0.7-1c0.1-1.5,0.3-3,0.6-4.6c0.5-3.2,1-6.5,0.5-9.7c0-0.3-0.1-0.6-0.2-1
	c-0.3-1.4-0.7-3.3-0.5-4.7c0.2-1.8,1.3-2.9,2.5-3.7l0.1,0c0.2,0,0.3,0,0.4,0.1c0.1,0,0.1,0.1,0.1,0.1l0.2,0l-0.1,0.2
	c-0.2,0.3-0.4,0.5-0.7,0.8c-0.4,0.4-0.8,0.8-1,1.3c-0.5,0.9-0.7,3.6,0.2,4.9l0,0l0,0c-0.1,0.7,0,1.4,0.1,2.1
	c0.1,0.9,0.2,1.8-0.2,2.5c0.5,1.4,0.4,7-0.4,8.5c0.1,0.8-0.1,1.3-0.3,1.8c-0.2,0.5-0.4,1-0.2,1.8l0,0.1l-0.1,0
	c-0.3,0.2-0.5,0.7-0.6,1.2C9,37.5,8.8,38.4,7.8,38.4z M11.8,11.6c-1.3,1-2.2,1.9-2.3,3.5c-0.1,1.4,0.2,3.3,0.5,4.7
	c0.1,0.4,0.1,0.7,0.2,1c0.5,3.2,0,6.5-0.5,9.8c-0.2,1.6-0.5,3.1-0.6,4.6c-0.1,0.4-0.4,0.8-0.7,1.1c-0.5,0.6-1,1.2-0.6,1.8
	c0.8,0,0.9-0.6,1.1-1.4c0.1-0.5,0.2-1,0.6-1.3c-0.1-0.8,0.1-1.3,0.3-1.8c0.2-0.5,0.4-1,0.3-1.7l0,0l0,0c0.7-1.3,0.9-7,0.3-8.4l0-0.1
	l0-0.1c0.4-0.6,0.3-1.5,0.2-2.4c-0.1-0.7-0.2-1.4-0.1-2.1c-0.9-1.4-0.6-4.2-0.2-5.1c0.3-0.6,0.7-1,1.1-1.4c0.2-0.2,0.4-0.4,0.5-0.6
	c0,0-0.1,0-0.1-0.1C11.9,11.6,11.9,11.6,11.8,11.6z"/>
</svg>
