<?xml version="1.0" encoding="utf-8"?>
<!-- Generator: Adobe Illustrator 15.1.0, SVG Export Plug-In  -->
<!DOCTYPE svg PUBLIC "-//W3C//DTD SVG 1.1//EN" "http://www.w3.org/Graphics/SVG/1.1/DTD/svg11.dtd" [
	<!ENTITY ns_flows "http://ns.adobe.com/Flows/1.0/">
]>
<svg version="1.1"
	 xmlns="http://www.w3.org/2000/svg" xmlns:xlink="http://www.w3.org/1999/xlink" xmlns:a="http://ns.adobe.com/AdobeSVGViewerExtensions/3.0/"
	 x="0px" y="0px" width="63px" height="57px" viewBox="-6.248 -4.874 63 57"
	 overflow="visible" enable-background="new -6.248 -4.874 63 57" xml:space="preserve">
<defs>
</defs>
<path fill="none" stroke="#FFFFFF" stroke-miterlimit="10" d="M49.953,42.726c0,2.428-2.089,4.397-4.664,4.397H5.165
	c-2.576,0-4.665-1.97-4.665-4.397V4.898C0.5,2.468,2.589,0.5,5.165,0.5h40.124c2.575,0,4.664,1.969,4.664,4.398V42.726z"/>
<path fill="#FFFFFF" stroke="#FFFFFF" stroke-width="0.25" d="M34.014,8.346c-0.277,0.979-0.117,1.46,0,2.417
	c-2.437,0.442-4.813,0.942-6.218,2.419c0.017,0.606-0.521,1.234-0.518,1.898c0.001,0.299,0.482,0.986,0.518,1.554
	c0.022,0.362-0.244,0.561-0.172,0.864c0.108,0.454,0.451,0.762,0.519,1.208c0.142,0.954-0.054,2.128,0.173,3.108
	c0.116,0.503,0.491,0.89,0.518,1.382c0.066,1.204-0.465,2.319-0.346,3.452c0.067,0.631,0.581,1.029,0.346,1.729
	c-1.146,3.104-0.586,7.745-2.763,9.15c-2.796-2.914-1.718-9.541-2.59-13.123c0.655-1.244,0.767-3.031,0.69-5.007
	c0.816-1.161,0.394-3.201,0.519-5.353c-0.405-0.573-0.84-1.117-1.209-1.728c-1.05-0.043-1.553-0.635-2.59-0.689
	c0.229,0.749,1.055,0.9,2.071,0.863c0.835,1.368,1.207,2.878,1.037,4.835c-0.89,2.047-0.743,4.865-0.864,7.425
	c-0.146,3.093,0.085,6.314,0.346,9.497c1.039,1.665,1.108,4.301,3.28,4.835c0.068-1.373,1.91-2.893,1.382-4.835
	c0.969-0.707,0.491-1.931,0.69-3.281c0.076-0.522,0.465-0.901,0.518-1.382c0.093-0.827-0.202-2.104-0.174-3.279
	c0.084-3.297-0.149-6.069-0.344-8.634c-1.072-1.034-0.662-3.329,0-4.663c1.371-0.427,3.146-2.05,5.008-0.863
	c-0.092,6.582,0.119,12.763,0,19.167c-0.066,0.642,0.699,0.45,0.518,1.207c-0.311,1.838,0.285,3.478,0.52,4.489
	c0.213,0.937-0.117,2.277,1.035,2.417c0.558-1.332-0.535-3.053-0.69-3.971c-0.37-2.178-0.125-4.512-0.173-6.733
	c0.094-0.61-0.611-0.425-0.519-1.036c0.308-0.5,0.064-1.549,0.519-1.898c-0.912-0.607-0.35-1.584-0.346-2.417
	c0.01-1.908-0.463-4.55-0.173-6.217c0.111-0.644,0.49-0.97,0.519-1.554c0.025-0.533-0.25-0.646-0.346-1.036
	c-0.168-0.694,0.004-0.871,0.174-1.21c0.314-0.631-0.183-1.257,0.345-1.553c1.017,0.192,2.081,0.336,3.28,0.345
	c0.85,0.25,0.875,1.312,1.209,1.727c0.5,0.621,1.17,0.698,1.381,1.554c0.214,0.866-0.477,1.712,0,2.763
	c-0.024,0.379-0.434,0.371-0.862,0.346c0.597,1.363,0.45,3.994-0.173,5.18c0.324,1.112,0.551,1.756,0.173,2.936
	c0.89,1.33-0.024,3.437-0.173,4.836c1.195,1.854-0.176,6.275,2.072,7.08c0.791-1.683-0.573-2.272-0.863-3.799
	c-0.332-1.752,0.175-4.421,0.172-7.08c0-1.647-0.285-3.365-0.172-4.834c0.201-2.629,0.805-5.016,0.518-7.08
	c-0.266-1.912-0.879-2.409-2.07-3.28c-1.137-0.83-1.026-0.705-2.592-1.036c-0.475-0.101-0.988-0.673-1.207-0.691
	c-0.521-0.044-0.978,0.616-1.383,0.173c0.309-0.727,0.711-1.361,0.518-2.59C34.688,7.969,34.557,8.432,34.014,8.346z M17.264,10.936
	c-1.104,0.162-2.699-0.167-3.107,0.691c0.647,0.305,2.257-0.309,3.107,0.173c-0.051,7.98,0.208,15.316-0.863,22.102
	c0.059,0.576,0.501,0.767,0.346,1.555c-0.304,0.675-1.062,3.023-0.173,3.798c0.638,0.062,0.519-0.853,0.519-0.862
	c-0.008-0.232,0.32-0.22,0.346-0.346c0.075-0.38-0.013-1.281,0-1.898c0.052-2.647,0.037-5.94,0.345-7.771
	c0.925-5.492-0.421-12.34,0.346-16.749c0.512-0.443,1.337,0.721,1.726-0.173c-0.459-0.461-1.605-0.235-1.898-0.864
	c-0.07-0.734,0.167-1.777-0.173-2.244c-0.173,0-0.345,0-0.519,0C16.563,8.785,17.352,10.032,17.264,10.936z M12.257,11.971
	c-1.214,0.896-2.24,1.904-2.418,3.628c-0.19,1.857,0.496,4.483,0.691,5.697c0.769,4.791-0.727,9.84-1.036,14.332
	c-0.327,1.018-1.99,2.078-1.209,3.107c1.591,0.037,0.958-2.149,1.899-2.762c-0.241-1.623,0.742-2.021,0.518-3.628
	c0.781-1.381,0.859-7.071,0.346-8.461c0.766-1.141-0.099-2.94,0.173-4.662c-0.855-1.307-0.642-4.119-0.173-5.007
	c0.483-0.916,1.306-1.447,1.727-2.072C12.554,12.136,12.535,11.924,12.257,11.971z"/>
</svg>
