<?xml version="1.0" standalone="no"?>
<!DOCTYPE svg PUBLIC "-//W3C//DTD SVG 20010904//EN"
 "http://www.w3.org/TR/2001/REC-SVG-20010904/DTD/svg10.dtd">
<svg version="1.0" xmlns="http://www.w3.org/2000/svg"
 width="1008.000000pt" height="1008.000000pt" viewBox="0 0 1008.000000 1008.000000"
 preserveAspectRatio="xMidYMid meet">
<metadata>
Created by potrace 1.11, written by Peter Selinger 2001-2013
</metadata>
<g transform="translate(0.000000,1008.000000) scale(0.100000,-0.100000)"
fill="#000000" stroke="none">
<path d="M1725 8728 c-22 -4 -58 -10 -80 -13 -70 -11 -216 -78 -283 -129 -23
-17 -135 -128 -157 -156 -11 -14 -37 -56 -57 -95 -33 -64 -42 -91 -64 -180 -9
-35 -15 -6246 -6 -6260 3 -5 7 -25 9 -44 6 -54 55 -170 100 -237 129 -189 337
-310 567 -329 37 -3 72 -8 77 -11 5 -3 9 0 9 6 0 6 4 9 10 5 13 -8 118 -10
125 -3 4 3 20 2 36 -2 16 -5 31 -5 33 -1 3 3 24 5 48 3 24 -2 49 -3 56 -3 12
1 31 1 57 1 32 -1 80 0 108 0 6 1 40 0 75 -1 34 -1 65 1 68 4 3 3 16 2 28 -3
13 -4 28 -5 35 -1 7 5 30 5 52 1 22 -4 42 -4 44 1 3 4 19 4 35 -1 16 -5 32 -5
34 -1 3 3 24 5 48 3 24 -2 49 -3 56 -3 12 1 31 1 57 1 32 -1 80 0 108 0 24 1
142 1 162 0 25 -1 28 -1 98 2 31 2 57 1 57 -2 0 -3 33 -4 72 -2 95 3 83 3 161
1 37 -1 70 1 73 4 3 3 19 1 35 -3 16 -5 31 -5 33 -1 3 3 24 5 48 3 24 -2 49
-3 56 -3 12 1 31 1 57 1 32 -1 80 0 108 0 24 1 142 1 162 0 25 -1 28 -1 98 2
31 2 57 1 57 -2 0 -3 33 -4 72 -2 95 3 83 3 161 1 37 -1 70 1 73 4 3 3 19 1
35 -3 16 -5 31 -5 33 -1 3 3 24 5 48 3 24 -2 49 -3 56 -3 12 1 31 1 57 1 32
-1 80 0 108 0 6 1 40 0 75 -1 34 -1 65 1 68 4 3 3 16 2 28 -3 13 -4 28 -5 35
-1 7 5 30 5 52 1 22 -4 42 -4 44 1 3 4 19 4 35 -1 16 -5 32 -5 34 -1 3 3 24 5
48 3 24 -2 49 -3 56 -3 12 1 31 1 57 1 32 -1 80 0 108 0 24 1 142 1 162 0 25
-1 28 -1 98 2 31 2 57 1 57 -2 0 -3 33 -4 72 -2 95 3 83 3 161 1 37 -1 70 1
73 4 3 3 19 1 35 -3 16 -5 31 -5 33 -1 3 3 24 5 48 3 24 -2 49 -3 56 -3 12 1
31 1 57 1 32 -1 80 0 108 0 24 1 142 1 162 0 25 -1 28 -1 98 2 31 2 57 1 57
-2 0 -3 33 -4 72 -2 95 3 83 3 161 1 37 -1 70 1 73 4 3 3 19 1 35 -3 16 -5 31
-5 33 -1 3 3 24 5 48 3 24 -2 49 -3 56 -3 12 1 31 1 57 1 32 -1 80 0 108 0 6
1 40 0 75 -1 34 -1 65 1 68 4 3 3 16 2 28 -3 13 -4 28 -5 35 -1 7 5 30 5 52 1
22 -4 42 -4 44 1 3 4 19 4 35 -1 16 -5 32 -5 34 -1 3 3 24 5 48 3 24 -2 49 -3
56 -3 6 1 20 1 30 1 9 0 26 0 37 0 11 1 27 1 35 0 8 0 24 0 35 0 11 1 25 1 30
1 45 -1 131 -2 135 -1 3 0 41 3 85 5 87 5 106 8 148 24 15 6 27 9 27 6 0 -2
17 3 38 11 210 87 336 203 422 387 34 75 43 105 57 192 2 17 4 1422 5 3123 0
2257 -3 3096 -11 3105 -6 8 -8 16 -5 19 8 8 -13 81 -42 147 -14 31 -24 58 -24
60 1 2 -2 7 -7 10 -4 3 -21 26 -38 49 -37 56 -115 134 -169 171 -61 41 -135
81 -151 81 -8 0 -15 4 -15 8 0 5 -42 19 -92 32 l-93 24 -3290 1 c-1809 0
-3308 -3 -3330 -7z"/>
</g>
</svg>
